# xmcd
# 
# Track frame offsets:
#     150
#     19650
#     35000
#     49500
#     64687
#     79500
#     92175
#     109687
#     124350
#     136800
#     152062
#     164062
#     176887
#     188800
#     200100
#     211812
#     223600
#     242100
# 
# Disc length: 3621
# 
# Revision: 1
# Processed by: cddbd v1.5.2PL0 Copyright (c) Steve Scherf et al.
# Submitted via: fre:ac v1.0.31
# 
DISCID=050e2312
DTITLE=Various Artist - FOLK and POPS BEST HITS 05
DYEAR=0
DGENRE=JPop
TTITLE0=少女
TTITLE1=雨
TTITLE2=秋でもないのに
TTITLE3=耳をすましてごらん
TTITLE4=あの場所から
TTITLE5=風邪と落葉と旅びと
TTITLE6=嵯峨野さやさや
TTITLE7=山羊にひかれて
TTITLE8=あなたが欲しい
TTITLE9=時には母のない子のように
TTITLE10=何故に二人はここに
TTITLE11=花と小父さん
TTITLE12=風がはこぶもの
TTITLE13=一人の手
TTITLE14=君について行こう
TTITLE15=カンドレ・マンドレ
TTITLE16=ともだち
TTITLE17=イメージの詩
EXTD=
EXTT0=
EXTT1=
EXTT2=
EXTT3=
EXTT4=
EXTT5=
EXTT6=
EXTT7=
EXTT8=
EXTT9=
EXTT10=
EXTT11=
EXTT12=
EXTT13=
EXTT14=
EXTT15=
EXTT16=
EXTT17=
PLAYORDER=
